<?xml version="1.0" standalone="no"?>
<!DOCTYPE svg PUBLIC "-//W3C//DTD SVG 20010904//EN"
 "http://www.w3.org/TR/2001/REC-SVG-20010904/DTD/svg10.dtd">
<svg version="1.0" xmlns="http://www.w3.org/2000/svg"
 width="1764.000000pt" height="1764.000000pt" viewBox="0 0 1764.000000 1764.000000"
 preserveAspectRatio="xMidYMid meet">

<g transform="translate(0.000000,1764.000000) scale(0.100000,-0.100000)"
fill="#000000" stroke="none">
<path d="M8570 17489 c-140 -4 -322 -12 -405 -18 -221 -17 -548 -52 -560 -59
-5 -4 -21 -7 -35 -8 -14 0 -36 -4 -50 -7 -14 -3 -86 -15 -160 -27 -179 -27
-451 -79 -470 -89 -8 -5 -78 -23 -155 -41 -162 -37 -296 -73 -375 -100 -30
-10 -125 -40 -210 -66 -85 -25 -159 -50 -165 -54 -5 -3 -80 -31 -165 -60 -85
-29 -156 -57 -158 -61 -2 -5 -9 -9 -15 -9 -16 0 -177 -65 -262 -105 -38 -18
-99 -45 -134 -60 -145 -61 -551 -267 -703 -357 -53 -32 -99 -58 -103 -58 -7 0
-21 -9 -228 -143 -65 -43 -120 -77 -123 -77 -6 0 -238 -161 -324 -224 -30 -23
-66 -47 -80 -55 -46 -26 -397 -312 -527 -429 -35 -31 -73 -62 -85 -68 -13 -7
-40 -33 -61 -58 -21 -25 -44 -46 -51 -46 -7 0 -66 -54 -130 -120 -64 -66 -121
-120 -126 -120 -5 0 -16 -10 -24 -21 -8 -12 -55 -63 -105 -114 -50 -51 -91
-95 -91 -98 0 -3 -24 -31 -52 -61 -29 -30 -70 -74 -90 -98 -20 -24 -73 -85
-118 -137 -110 -126 -350 -427 -350 -438 0 -4 -12 -22 -27 -38 -16 -16 -55
-69 -88 -117 -33 -48 -90 -131 -127 -183 -38 -53 -68 -100 -68 -105 0 -4 -3
-10 -7 -12 -5 -1 -17 -19 -27 -38 -11 -19 -41 -68 -68 -108 -26 -40 -60 -96
-75 -125 -15 -28 -35 -64 -44 -78 -21 -30 -129 -220 -129 -226 0 -2 -5 -9 -10
-16 -6 -7 -32 -55 -59 -107 -27 -52 -58 -113 -69 -135 -19 -37 -109 -226 -144
-305 -55 -120 -171 -400 -189 -453 -11 -34 -25 -67 -29 -72 -5 -6 -34 -87 -64
-180 -31 -94 -61 -179 -66 -190 -12 -24 -122 -404 -122 -425 -1 -8 -4 -17 -8
-20 -9 -7 -60 -223 -96 -410 -9 -47 -19 -92 -22 -100 -7 -19 -7 -20 -37 -179
-14 -74 -39 -243 -56 -375 -17 -133 -33 -254 -35 -271 -31 -234 -37 -376 -38
-875 -1 -375 3 -568 13 -675 7 -82 13 -159 13 -170 -1 -10 3 -24 7 -30 5 -5
11 -48 15 -95 10 -127 53 -450 76 -575 11 -60 21 -117 21 -125 0 -8 3 -22 7
-30 3 -8 7 -22 8 -30 2 -8 8 -37 14 -65 6 -27 25 -113 41 -190 42 -193 60
-268 69 -280 4 -5 13 -32 19 -60 31 -143 196 -659 231 -725 6 -11 8 -20 4 -20
-3 0 -2 -6 4 -12 5 -7 28 -63 51 -125 22 -61 58 -149 79 -195 22 -46 43 -94
47 -108 14 -48 217 -466 283 -585 25 -44 65 -118 89 -165 25 -47 50 -92 57
-100 16 -19 86 -140 86 -147 0 -7 66 -109 175 -273 39 -58 76 -116 83 -130 7
-14 71 -103 142 -199 72 -95 130 -177 130 -182 0 -6 6 -12 14 -15 8 -3 27 -24
42 -47 101 -149 438 -530 719 -810 221 -222 493 -468 687 -623 51 -41 98 -79
105 -84 7 -6 15 -10 19 -10 3 0 15 -11 26 -25 11 -14 24 -25 30 -25 6 0 31
-17 57 -38 70 -57 290 -216 338 -243 22 -13 52 -32 65 -42 38 -29 240 -161
278 -182 19 -11 89 -52 155 -91 66 -39 140 -81 165 -93 25 -12 65 -33 90 -47
154 -89 207 -117 315 -164 66 -29 122 -57 125 -61 3 -4 28 -16 55 -27 123 -49
229 -94 249 -106 11 -8 80 -35 151 -62 72 -26 139 -53 150 -60 11 -7 94 -36
185 -64 91 -29 170 -56 175 -60 6 -5 93 -32 195 -60 102 -29 190 -57 196 -62
7 -5 16 -8 20 -6 5 1 34 -5 64 -14 30 -9 143 -35 250 -58 107 -23 205 -45 217
-50 47 -19 646 -111 716 -110 22 1 45 -4 51 -10 7 -5 24 -10 37 -9 13 0 101
-7 194 -17 248 -26 1238 -27 1495 -1 96 10 189 20 205 23 17 3 48 7 70 8 22 2
47 6 55 9 8 3 74 13 145 21 179 23 497 75 516 85 9 5 60 18 115 30 255 53 415
91 429 102 6 4 53 19 105 33 168 44 271 76 316 96 23 11 47 20 53 20 17 0 285
92 306 105 11 7 84 36 163 65 78 29 142 57 142 62 0 4 6 8 14 8 16 0 164 64
291 125 50 24 124 60 165 80 96 46 284 145 401 213 50 28 96 52 100 52 5 0 9
5 9 11 0 5 4 8 9 4 6 -3 13 1 18 8 4 7 28 23 53 36 25 13 96 56 158 97 61 41
114 74 117 74 9 0 326 221 372 260 7 5 17 10 23 10 6 0 13 7 16 15 4 8 11 15
16 15 13 0 361 280 484 389 51 45 94 81 98 81 3 0 26 19 50 43 24 23 95 89
156 147 176 164 373 366 508 520 149 170 255 296 365 435 70 88 131 165 137
172 5 7 10 15 10 18 0 3 9 16 20 28 11 12 36 45 55 72 19 28 77 112 129 188
53 76 96 140 96 142 0 3 34 56 75 119 41 62 86 136 100 165 14 28 30 51 36 51
5 0 9 5 9 11 0 6 26 56 58 111 73 127 172 312 218 408 19 41 57 119 85 174 27
54 49 102 49 107 0 5 19 51 43 102 43 91 98 225 133 322 10 28 23 59 30 70 20
32 132 364 188 555 28 96 54 180 57 185 7 11 19 59 73 285 18 80 37 165 41
190 4 25 11 50 16 56 6 7 9 16 8 20 -1 5 0 16 4 24 10 26 62 341 93 564 9 61
18 122 21 136 12 62 33 287 48 530 29 449 12 1174 -35 1540 -22 169 -64 448
-95 625 -28 163 -29 166 -50 240 -8 28 -33 133 -56 235 -23 102 -46 196 -52
210 -6 14 -9 29 -8 34 1 4 -2 13 -8 20 -5 6 -16 38 -24 71 -39 151 -59 219
-93 311 -20 55 -54 153 -76 219 -22 66 -46 131 -54 145 -7 14 -32 75 -54 135
-23 61 -54 137 -70 170 -15 33 -38 85 -50 115 -30 78 -297 615 -338 678 -19
30 -40 69 -48 88 -12 29 -95 167 -173 289 -14 22 -25 43 -26 46 0 3 -8 14 -18
24 -10 10 -23 29 -28 43 -5 13 -60 96 -122 184 -61 88 -120 173 -130 191 -21
35 -144 194 -285 367 -51 63 -104 129 -117 145 -13 17 -38 46 -55 65 -17 19
-62 72 -101 118 -161 188 -557 584 -724 723 -38 33 -91 79 -117 104 -25 25
-50 45 -55 45 -5 0 -32 22 -59 50 -27 27 -53 50 -57 50 -5 0 -76 54 -158 120
-82 66 -178 139 -212 162 -34 24 -67 47 -74 53 -7 5 -18 15 -25 20 -22 17
-156 107 -242 162 -45 29 -88 58 -96 65 -8 7 -18 12 -22 11 -5 -2 -8 2 -8 7 0
6 -4 10 -9 10 -5 0 -71 38 -145 85 -75 47 -139 85 -144 85 -4 0 -41 21 -82 46
-96 59 -559 295 -669 341 -47 19 -94 41 -105 48 -12 7 -75 34 -141 60 -66 26
-138 55 -160 65 -54 25 -232 90 -245 90 -6 0 -27 7 -48 17 -20 9 -39 17 -42
18 -3 1 -18 7 -34 14 -16 6 -102 32 -190 58 -89 25 -166 49 -171 54 -12 9
-290 80 -410 104 -44 9 -85 21 -92 27 -6 5 -17 8 -25 7 -7 -1 -20 0 -28 4 -33
12 -447 87 -625 112 -11 1 -27 5 -35 8 -52 21 -581 66 -850 72 -107 3 -231 7
-275 8 -44 2 -195 0 -335 -4z m670 -795 l35 -6 -8 -146 c-5 -81 -11 -150 -15
-154 -14 -14 -28 8 -50 79 -18 55 -31 79 -63 108 -52 47 -67 52 -169 56 l-85
4 -3 -455 c-1 -250 0 -469 3 -487 9 -52 36 -76 90 -82 27 -3 50 -12 53 -18 3
-10 -22 -13 -101 -13 -57 0 -179 -3 -270 -7 -151 -6 -167 -5 -167 10 0 11 8
17 25 17 14 0 41 6 59 14 57 24 58 33 41 507 -8 233 -15 444 -15 468 l0 44
-81 -6 c-157 -12 -209 -62 -244 -230 -4 -20 -11 -27 -23 -25 -14 3 -19 26 -30
152 -7 82 -11 150 -9 152 16 16 939 32 1027 18z m983 -109 c247 -42 604 -119
693 -150 11 -3 -6 -77 -62 -272 -22 -80 -40 -69 -47 28 -13 159 -82 225 -286
270 -128 28 -126 28 -139 -33 -87 -417 -84 -384 -39 -392 45 -8 101 7 141 38
32 24 96 133 96 163 0 17 29 17 36 0 2 -7 -13 -85 -35 -172 -21 -88 -51 -213
-66 -278 -21 -92 -30 -117 -42 -115 -12 2 -16 21 -17 88 -3 128 -37 182 -138
211 -15 4 -28 5 -28 1 0 -3 -19 -98 -41 -210 l-42 -203 20 -27 c27 -36 95 -54
213 -56 82 -1 102 2 145 23 59 30 116 80 156 138 33 47 66 60 53 21 -4 -13
-33 -83 -65 -156 -33 -73 -59 -137 -59 -142 0 -21 -27 -18 -182 19 -197 49
-374 84 -528 106 -63 9 -125 21 -137 25 -30 12 -20 39 12 32 47 -9 94 7 110
37 8 16 28 109 45 207 50 297 110 684 110 716 0 40 -41 75 -96 84 -34 5 -44
11 -44 25 0 15 6 18 28 14 15 -3 121 -21 235 -40z m-3076 -128 c28 -39 89
-124 135 -187 119 -165 219 -311 341 -500 116 -181 149 -219 199 -229 19 -4
33 -13 33 -21 0 -11 -28 -20 -105 -33 -58 -9 -162 -28 -231 -42 -147 -29 -149
-29 -149 -10 0 8 16 19 39 25 80 21 79 62 -5 189 l-56 83 -43 -5 c-23 -4 -102
-20 -174 -38 -93 -22 -134 -36 -141 -48 -5 -10 -12 -58 -16 -107 -6 -86 -6
-91 18 -119 23 -26 32 -29 84 -29 93 -1 77 -23 -36 -52 -52 -13 -124 -34 -159
-45 -52 -18 -65 -19 -72 -8 -6 10 3 25 26 48 44 42 59 94 80 271 27 232 54
408 96 625 57 294 59 305 72 305 7 0 35 -33 64 -73z m-1110 -284 c3 -10 27
-73 53 -140 37 -96 45 -125 35 -133 -9 -8 -25 4 -60 45 -50 59 -96 88 -159 99
-32 6 -56 1 -123 -25 -46 -17 -83 -35 -83 -39 0 -4 18 -47 39 -96 22 -49 74
-168 116 -264 158 -361 227 -509 246 -526 21 -19 64 -22 117 -9 55 13 40 -19
-20 -43 -81 -32 -244 -105 -337 -152 -63 -31 -86 -39 -95 -30 -8 9 -5 16 14
28 50 34 70 60 70 94 0 22 -66 168 -200 447 -110 227 -200 418 -200 422 0 15
-18 10 -76 -17 -136 -64 -177 -158 -138 -316 5 -24 3 -28 -15 -28 -11 0 -21 3
-21 8 0 4 -29 60 -65 124 -36 65 -65 122 -65 127 0 13 259 143 485 244 181 81
455 196 468 197 4 0 10 -8 14 -17z m6666 -455 c70 -38 127 -73 127 -78 0 -20
-23 -20 -55 0 -20 12 -52 22 -72 22 -56 0 -49 9 -263 -377 -210 -379 -220
-405 -175 -498 29 -62 55 -85 128 -112 64 -24 151 -16 212 20 25 14 66 52 91
83 58 75 359 538 374 577 18 48 4 91 -40 127 -40 31 -52 58 -27 58 23 0 337
-204 337 -219 0 -18 -14 -18 -53 0 -103 46 -112 38 -331 -291 -198 -296 -265
-377 -343 -412 -75 -33 -196 -37 -276 -8 -191 70 -307 204 -307 356 0 85 35
173 199 496 166 326 173 348 122 390 -15 12 -36 28 -46 34 -12 6 -16 16 -12
27 5 13 28 5 144 -55 76 -39 195 -102 266 -140z m-8196 -395 c33 -49 81 -118
106 -154 38 -55 44 -69 33 -78 -10 -9 -24 -2 -62 29 -66 54 -138 80 -223 80
-79 0 -120 -12 -177 -52 -100 -71 -115 -198 -31 -253 47 -30 112 -34 246 -13
69 11 180 20 246 21 113 2 124 0 182 -27 141 -65 217 -211 192 -370 -13 -79
-47 -142 -107 -198 -60 -56 -108 -82 -196 -104 -89 -22 -110 -40 -111 -94 -2
-79 -2 -79 -182 142 -57 70 -103 131 -103 137 0 20 32 11 70 -19 51 -41 131
-76 207 -91 161 -33 313 56 313 184 0 96 -62 159 -170 171 -25 3 -112 -4 -195
-16 -190 -25 -311 -22 -381 13 -70 33 -128 91 -159 157 -24 51 -27 66 -23 137
4 61 11 92 32 133 54 105 167 185 305 216 108 25 114 29 108 82 -4 42 -1 54
13 54 4 0 34 -39 67 -87z m4853 -279 c1160 -93 2264 -503 3225 -1198 438 -317
897 -759 1246 -1201 634 -802 1074 -1779 1249 -2771 77 -434 105 -785 97
-1199 -7 -330 -17 -474 -52 -730 -105 -769 -296 -1385 -639 -2055 -387 -758
-900 -1398 -1581 -1976 -248 -210 -579 -440 -901 -626 -114 -67 -484 -258
-498 -258 -3 0 -43 -18 -90 -39 -203 -95 -606 -240 -861 -311 -382 -106 -822
-184 -1217 -215 -243 -19 -741 -19 -978 0 -759 61 -1473 242 -2140 542 -701
315 -1315 740 -1876 1298 -761 757 -1296 1659 -1603 2700 -165 560 -245 1140
-245 1765 0 986 222 1919 666 2805 414 824 1018 1562 1753 2140 974 764 2178
1232 3425 1330 107 8 239 15 292 15 l96 0 7 -32 7 -32 21 28 c11 15 29 32 41
36 26 12 326 3 556 -16z m4773 -333 l88 -75 -6 -80 c-27 -344 -45 -522 -71
-685 -8 -51 -13 -96 -10 -99 7 -6 346 318 390 371 39 49 38 96 -4 149 -17 21
-28 43 -25 48 15 24 13 25 235 -213 38 -40 50 -61 43 -68 -8 -8 -23 -2 -53 20
-51 37 -82 39 -131 8 -33 -19 -476 -421 -677 -612 -41 -38 -77 -71 -82 -73
-17 -6 -17 29 1 133 48 279 91 664 103 925 l6 125 -41 -45 c-22 -25 -68 -77
-102 -116 -34 -39 -123 -140 -198 -225 -158 -180 -177 -205 -179 -239 -4 -45
0 -57 26 -95 39 -58 16 -67 -43 -17 -26 23 -85 72 -130 109 -45 38 -82 76 -82
86 -1 22 6 21 54 -3 84 -43 113 -25 287 179 79 91 205 237 281 323 106 122
137 164 137 185 -1 50 -18 104 -40 128 -14 15 -20 30 -16 40 5 14 20 5 79 -46
39 -34 112 -96 160 -138z m-11158 -1046 c98 -26 173 -72 266 -165 144 -143
205 -289 197 -464 -6 -111 -31 -186 -94 -279 -89 -130 -208 -212 -349 -242
-90 -19 -148 -19 -243 1 -304 62 -501 279 -502 553 0 135 36 232 140 369 90
120 207 205 317 231 62 15 204 12 268 -4z m12368 -292 c181 -257 240 -350 232
-370 -6 -16 -8 -16 -23 7 -37 55 -69 80 -107 80 -19 0 -46 -6 -58 -14 -43 -27
-553 -359 -650 -424 -54 -35 -102 -73 -107 -83 -14 -25 -12 -70 5 -99 18 -32
19 -50 0 -50 -8 0 -43 44 -78 98 -36 53 -101 148 -146 210 -73 102 -87 132
-61 132 4 0 24 -16 43 -35 37 -37 71 -44 110 -23 12 6 105 70 207 143 173 123
384 271 433 305 60 40 118 94 123 115 6 25 -25 107 -45 120 -9 5 -9 10 0 21 6
8 13 14 14 14 2 0 50 -66 108 -147z m501 -790 c85 -160 206 -403 206 -413 0
-23 -31 -8 -46 23 -43 85 -76 88 -144 15 -26 -29 -113 -124 -192 -212 -78 -87
-171 -188 -204 -225 l-61 -66 357 0 358 0 27 25 c27 26 30 55 10 131 -5 19 -2
28 8 32 11 4 27 -25 65 -121 98 -247 93 -232 78 -238 -9 -3 -29 8 -49 28 -42
42 -88 56 -229 69 -93 9 -793 13 -958 6 -36 -2 -45 1 -45 14 0 9 46 66 101
125 234 252 501 563 598 698 57 79 58 82 52 132 -5 48 -2 64 14 64 4 0 28 -39
54 -87z m-13927 -597 c104 -52 153 -132 161 -259 4 -62 8 -77 19 -73 8 3 124
24 258 46 261 43 288 50 322 82 20 19 61 19 50 1 -3 -5 -26 -53 -52 -108 -26
-55 -54 -115 -62 -133 -20 -42 -29 -46 -188 -73 -163 -27 -425 -85 -436 -96
-4 -4 -11 -20 -14 -34 -6 -26 -4 -28 82 -57 48 -17 133 -47 188 -66 142 -51
168 -48 200 23 17 39 37 52 49 32 3 -5 -10 -49 -30 -97 -20 -49 -58 -158 -86
-242 -54 -167 -73 -188 -73 -83 0 53 -4 66 -22 81 -12 10 -136 54 -275 99
-139 45 -298 98 -353 116 -181 62 -273 85 -299 75 -30 -11 -63 -53 -71 -90 -6
-27 -23 -38 -37 -25 -3 4 18 79 47 168 125 386 208 572 291 653 97 94 221 116
331 60z m14617 -1115 c9 -14 103 -418 131 -561 27 -140 67 -392 63 -395 -10
-8 -309 -47 -322 -42 -25 10 -9 33 32 46 55 17 126 74 147 117 27 56 30 149
10 275 -14 86 -21 109 -34 109 -15 0 -306 -60 -395 -82 -36 -9 -38 -11 -32
-41 4 -17 17 -48 31 -68 30 -46 83 -67 190 -77 60 -5 80 -11 80 -21 0 -12 -64
-26 -280 -63 -154 -26 -286 -47 -293 -48 -33 -1 -2 33 50 54 83 34 135 79 149
129 9 35 7 102 -3 112 -3 3 -189 -35 -318 -66 -46 -11 -95 -27 -109 -35 -22
-15 -23 -21 -18 -78 12 -131 68 -246 142 -298 43 -29 145 -68 181 -68 23 0 51
-25 37 -33 -12 -7 -351 -12 -358 -5 -3 3 -15 63 -26 132 -24 155 -55 323 -74
396 -24 92 -75 311 -75 321 0 23 30 5 39 -24 7 -19 21 -43 32 -55 35 -38 26
-40 649 115 211 52 312 81 326 95 27 24 34 56 24 111 -5 23 -6 45 -4 49 7 11
22 10 28 -1z m-14834 -660 c355 -130 507 -483 347 -810 -43 -90 -141 -188
-232 -233 -129 -65 -165 -73 -320 -73 -123 0 -148 3 -205 24 -165 60 -293 193
-342 355 -18 61 -20 84 -15 195 7 146 25 222 72 307 69 123 160 199 302 250
62 22 79 24 188 21 103 -4 132 -9 205 -36z m15104 -1431 c-1 -456 -17 -534
-125 -635 -149 -140 -407 -71 -466 124 -9 31 -18 57 -19 59 -1 2 -42 -19 -90
-46 -49 -27 -160 -86 -247 -132 -137 -72 -161 -88 -180 -122 -12 -21 -28 -37
-36 -36 -8 2 -15 5 -15 8 0 3 6 72 14 153 16 172 -2 148 180 245 63 34 171 95
240 135 122 71 125 74 128 110 l3 37 -206 0 c-138 0 -214 -4 -228 -12 -30 -15
-46 -39 -47 -65 0 -32 -10 -53 -26 -53 -21 0 -21 525 0 533 11 5 17 -5 22 -38
3 -25 16 -55 30 -70 l23 -25 203 1 c292 1 740 15 758 23 26 11 41 46 47 103 5
42 9 53 22 51 14 -3 16 -39 15 -348z m-15113 -449 c101 -26 155 -51 212 -98
122 -101 170 -210 217 -488 17 -104 38 -221 46 -258 18 -85 18 -107 0 -107 -8
0 -17 15 -21 36 -8 44 -48 84 -85 84 -40 0 -817 -147 -902 -170 -45 -13 -61
-48 -56 -122 2 -42 0 -53 -13 -56 -13 -2 -19 10 -28 60 -78 432 -91 519 -91
614 0 241 114 410 327 486 120 42 275 50 394 19z m14032 -981 c216 -47 245
-64 130 -75 -151 -14 -239 -51 -314 -133 -87 -95 -99 -202 -31 -275 61 -66
136 -75 217 -28 28 16 113 93 190 171 168 170 219 201 344 208 69 4 85 1 140
-23 210 -95 248 -366 81 -575 -68 -85 -76 -119 -35 -146 23 -15 35 -44 18 -44
-9 0 -357 100 -361 104 -1 2 0 10 4 19 4 12 19 16 62 15 70 -1 115 8 167 35
115 58 169 137 170 253 0 62 -3 75 -28 107 -18 24 -41 40 -68 47 -69 19 -125
-15 -275 -170 -201 -207 -262 -245 -389 -244 -65 0 -90 5 -135 26 -81 38 -134
89 -172 166 -30 61 -33 74 -33 162 0 82 4 103 27 152 14 31 45 81 67 111 48
63 51 94 15 130 -26 27 -27 64 -1 54 6 -2 101 -23 210 -47z m-13313 -683 c0
-7 -34 -62 -77 -122 -90 -129 -222 -342 -318 -510 -85 -150 -206 -378 -202
-381 2 -2 46 16 98 40 51 23 186 84 299 135 370 167 356 156 347 264 -8 90 10
89 53 -5 18 -40 51 -113 73 -161 32 -69 38 -90 28 -100 -10 -9 -15 -8 -23 8
-7 11 -25 33 -40 49 -43 42 -91 34 -268 -47 -80 -36 -253 -115 -384 -175
l-240 -109 -19 -44 c-13 -31 -17 -62 -15 -103 6 -112 -8 -92 -142 204 l-48
105 25 50 c82 164 257 462 369 629 29 44 52 81 51 83 -4 3 -488 -161 -512
-174 -11 -6 -31 -23 -44 -36 -21 -23 -23 -33 -20 -94 3 -55 1 -68 -11 -68 -17
0 -135 338 -126 361 9 23 20 16 48 -31 37 -61 64 -72 136 -57 31 7 253 77 492
156 239 80 443 145 453 145 9 1 17 -5 17 -12z m12774 -466 c-12 -27 -17 -79
-10 -107 7 -28 47 -48 316 -164 74 -32 230 -99 345 -149 116 -50 220 -91 231
-91 30 0 71 35 94 81 13 25 25 36 34 33 17 -7 17 -8 -91 -244 -113 -247 -152
-322 -166 -317 -7 3 -10 11 -8 18 43 149 44 147 -142 237 -321 157 -674 321
-699 327 -34 9 -62 -7 -97 -55 -19 -26 -32 -36 -41 -30 -10 6 4 44 63 167 43
88 77 162 77 165 0 3 16 40 35 82 26 58 38 74 50 70 10 -4 14 -12 9 -23z
m-12245 -759 c24 -42 84 -141 132 -219 49 -78 89 -146 89 -152 0 -21 -21 -11
-59 29 -22 23 -47 40 -60 40 -34 0 -93 -33 -356 -200 -71 -45 -206 -130 -299
-188 -204 -128 -214 -141 -171 -228 24 -49 26 -82 5 -69 -11 7 -145 219 -242
383 -59 101 -76 138 -68 146 9 8 16 5 28 -14 9 -14 29 -38 45 -54 24 -24 33
-28 67 -23 22 3 72 24 112 47 127 74 449 260 564 326 122 70 163 103 165 131
2 32 -3 58 -17 84 -13 27 -10 39 10 39 6 0 31 -35 55 -78z m11737 -207 c3 -8
-1 -24 -10 -37 -9 -12 -16 -40 -16 -61 0 -51 15 -64 235 -204 99 -64 272 -174
384 -246 l203 -130 19 24 c37 48 69 118 75 162 8 56 -25 133 -80 189 -22 23
-34 43 -30 52 8 21 13 20 54 -7 19 -13 74 -45 122 -71 48 -26 90 -52 93 -57
15 -23 -326 -542 -519 -791 l-67 -88 -120 92 c-150 115 -151 129 -6 92 58 -15
74 -16 115 -5 26 6 57 19 70 27 22 15 113 130 111 143 0 3 -82 62 -181 131
-100 69 -274 189 -387 268 -113 78 -215 145 -228 148 -31 8 -81 -13 -100 -43
-15 -23 -37 -30 -47 -14 -3 4 26 51 63 104 38 53 104 151 147 217 42 66 81
120 86 120 5 0 11 -7 14 -15z m-10980 -852 c32 -38 109 -123 171 -190 62 -67
113 -126 113 -132 0 -17 -26 -13 -41 6 -8 9 -28 22 -46 29 -42 18 -73 6 -138
-54 -27 -26 -111 -103 -185 -172 -74 -69 -169 -157 -210 -195 -41 -39 -103
-97 -137 -130 -35 -32 -61 -60 -60 -62 13 -12 613 233 876 358 68 32 125 59
127 59 12 0 -1 -44 -45 -153 -83 -205 -301 -836 -301 -872 0 -15 27 14 164
178 79 95 199 237 266 317 67 80 128 158 135 174 16 38 4 90 -30 126 -22 23
-24 29 -11 39 12 10 37 -6 143 -95 70 -59 130 -109 132 -111 3 -2 0 -8 -6 -14
-8 -8 -20 -6 -41 5 -55 28 -117 17 -157 -29 -74 -85 -524 -630 -543 -657 -31
-47 -24 -78 26 -129 35 -34 43 -59 21 -59 -18 0 -369 295 -369 311 0 14 174
496 224 618 25 63 44 116 42 119 -2 2 -39 -13 -83 -33 -161 -75 -636 -259
-652 -253 -21 8 -311 331 -311 346 0 26 21 19 58 -18 51 -51 89 -53 148 -7 69
54 533 457 611 531 83 79 89 100 48 160 -23 34 -26 56 -6 56 4 0 34 -30 67
-67z m10019 -353 c4 -6 -9 -29 -29 -50 -29 -32 -36 -48 -36 -80 0 -38 7 -48
93 -138 123 -129 128 -132 226 -164 78 -26 410 -122 506 -147 76 -20 143 -17
176 8 22 16 34 20 42 12 7 -7 -20 -43 -92 -119 -138 -150 -290 -294 -302 -287
-16 10 -10 31 16 55 15 14 25 35 25 51 0 25 -7 30 -77 57 -43 17 -130 46 -194
67 -64 20 -151 49 -195 65 -43 16 -80 28 -82 25 -5 -4 63 -373 85 -460 27
-110 51 -125 130 -80 38 23 44 24 49 10 4 -9 5 -17 3 -19 -7 -6 -243 -198
-257 -209 -9 -7 -16 -7 -23 0 -8 8 -3 22 15 49 41 60 34 150 -43 541 l-40 203
-122 135 c-68 74 -131 138 -142 141 -27 8 -67 -3 -110 -33 -28 -20 -41 -23
-49 -15 -7 7 -10 13 -7 15 28 20 190 167 287 259 67 65 127 118 132 118 5 0
12 -5 15 -10z m-8845 -1249 c107 -53 119 -262 19 -343 -50 -40 -129 -49 -185
-20 -45 23 -93 87 -105 141 -11 49 6 128 37 168 60 79 144 98 234 54z m8055
-14 c26 -12 74 -57 86 -79 18 -32 28 -114 19 -152 -12 -54 -57 -114 -104 -138
-52 -27 -116 -21 -174 16 -50 31 -71 72 -79 152 -5 44 -1 62 21 108 48 99 143
137 231 93z m-7070 -505 c55 -32 123 -80 152 -108 42 -42 53 -59 58 -98 6 -39
3 -55 -17 -94 -57 -110 -156 -118 -329 -25 -11 6 -109 -170 -109 -194 0 -12
12 -30 28 -41 23 -18 24 -22 10 -27 -17 -7 -278 139 -278 156 0 12 27 11 50
-1 10 -5 26 -7 34 -4 21 8 266 426 266 453 0 7 -12 23 -26 36 -37 35 -21 51
24 25 20 -12 81 -47 137 -78z m6126 5 c61 -95 61 -95 54 -107 -4 -6 -25 3 -51
22 -77 55 -201 49 -234 -11 -14 -28 -12 -63 6 -86 14 -18 30 -20 188 -25 169
-5 173 -6 208 -32 38 -29 78 -99 78 -137 0 -46 -24 -103 -62 -146 -38 -43 -76
-62 -166 -85 -35 -9 -46 -17 -54 -41 -6 -16 -15 -28 -22 -26 -18 6 -125 191
-116 201 5 4 23 -3 42 -17 84 -63 155 -78 223 -48 78 34 94 115 31 156 -20 14
-50 17 -160 16 -154 -2 -197 10 -245 65 -100 114 -9 287 165 312 39 6 49 11
50 27 1 11 2 23 3 28 3 19 20 1 62 -66z m-5646 -241 c189 -58 226 -81 132 -81
l-42 0 -37 -108 c-27 -77 -34 -109 -25 -112 56 -21 163 -55 172 -55 14 0 68
179 63 211 -2 14 -14 29 -30 37 -31 15 -37 32 -10 31 32 -1 297 -94 297 -104
0 -5 -17 -11 -39 -12 -21 0 -42 -5 -47 -10 -9 -9 -143 -410 -153 -460 -7 -33
0 -45 36 -64 16 -8 24 -19 20 -25 -10 -16 -312 82 -312 101 0 12 8 14 38 9 26
-4 41 -2 49 8 12 14 73 194 73 214 0 10 -179 79 -186 71 -8 -9 -64 -202 -64
-222 0 -17 9 -29 30 -40 33 -17 40 -36 13 -34 -10 0 -81 22 -158 47 -133 45
-174 70 -100 64 46 -4 57 14 111 188 25 80 57 177 71 216 30 86 28 114 -9 132
-29 14 -38 32 -15 32 6 0 62 -15 122 -34z m5136 -51 c16 -44 29 -83 29 -87 0
-19 -26 -5 -59 31 -48 51 -89 58 -181 31 l-69 -21 38 -106 c20 -59 43 -109 49
-111 6 -2 23 8 38 23 23 23 25 32 22 88 -2 49 0 62 11 62 17 0 120 -299 107
-312 -4 -4 -17 6 -29 22 -37 50 -69 75 -98 75 -15 0 -31 -5 -34 -10 -9 -14 52
-195 71 -211 12 -10 26 -9 70 5 99 31 154 101 154 194 0 38 27 45 35 10 23
-98 31 -169 21 -178 -14 -11 -474 -170 -493 -170 -23 0 -14 19 17 35 22 12 30
23 30 43 0 31 -145 459 -163 480 -8 10 -23 12 -49 8 -29 -5 -38 -3 -38 8 0 14
451 177 479 173 7 -1 26 -38 42 -82z m-651 -143 c-7 -3 -21 -13 -31 -23 -22
-22 -22 -20 38 -309 60 -293 58 -280 42 -280 -8 0 -122 90 -254 199 -132 109
-241 197 -243 196 -8 -7 70 -372 83 -392 11 -17 25 -23 50 -23 30 0 54 -14 43
-26 -5 -5 -195 -44 -214 -44 -23 0 -16 20 10 30 14 5 32 19 40 32 13 20 13 31
1 88 -8 36 -28 140 -46 231 -30 156 -34 168 -60 183 -15 9 -36 16 -47 16 -31
0 -37 19 -10 29 13 5 63 17 111 26 77 14 91 14 105 2 189 -160 334 -278 338
-275 4 5 -39 210 -57 265 -10 30 -47 51 -68 38 -5 -2 -14 2 -21 10 -10 12 -7
15 12 19 12 3 59 14 103 24 71 17 80 17 84 3 2 -8 -2 -17 -9 -19z m-3666 -32
c82 -17 150 -30 152 -30 2 0 4 -7 4 -15 0 -10 -10 -14 -36 -13 -24 1 -41 -4
-49 -16 -17 -22 -108 -488 -100 -508 4 -9 20 -20 36 -23 25 -6 43 -35 21 -35
-18 0 -304 60 -313 66 -18 11 3 24 41 24 26 0 40 5 44 16 8 21 70 304 90 411
15 79 13 113 -4 113 -22 0 -61 21 -55 30 8 13 -2 14 169 -20z m407 -71 c79
-11 146 -22 151 -25 20 -12 5 -24 -31 -24 -21 0 -43 -6 -49 -12 -10 -13 -38
-188 -63 -396 -9 -70 -10 -105 -3 -112 19 -19 138 -32 181 -21 45 12 68 35
108 104 43 75 53 48 26 -70 -12 -54 -25 -101 -29 -105 -6 -6 -273 25 -467 55
-82 12 -102 30 -40 35 26 2 39 10 46 25 12 30 70 497 63 509 -4 6 -22 16 -41
24 -32 14 -37 34 -8 34 8 0 78 -9 156 -21z m2576 -15 c2 -7 -12 -15 -32 -18
-20 -4 -39 -14 -42 -22 -11 -28 52 -500 69 -521 6 -7 26 -13 44 -13 24 0 34
-5 34 -15 0 -8 -1 -15 -2 -15 -2 0 -73 -9 -157 -19 -85 -11 -159 -17 -163 -15
-16 10 -7 23 22 29 17 4 34 15 40 24 11 22 -45 498 -62 518 -6 7 -26 13 -44
13 -52 0 -45 27 9 35 23 3 83 12 132 19 103 16 147 16 152 0z m-1814 -60 c74
-4 97 -9 97 -20 0 -9 -11 -14 -30 -14 -49 0 -56 -25 -69 -230 -6 -102 -11
-215 -11 -252 0 -66 1 -68 28 -74 45 -10 52 -13 52 -25 0 -9 -31 -10 -122 -6
-66 4 -141 7 -165 7 -32 0 -43 4 -43 15 0 9 9 15 25 15 49 0 61 27 68 146 21
337 21 396 2 410 -10 8 -29 14 -42 14 -23 0 -30 10 -16 23 3 4 34 5 67 2 34
-3 105 -7 159 -11z m1288 -26 c54 -32 79 -76 79 -140 0 -88 -74 -151 -201
-171 l-71 -11 7 -100 c9 -123 15 -136 60 -136 23 0 35 -5 35 -14 0 -10 -23
-15 -92 -20 -51 -4 -123 -9 -160 -12 -56 -5 -68 -3 -68 9 0 8 13 17 29 20 50
10 52 25 35 263 -19 287 -20 288 -67 292 -47 4 -50 29 -4 37 51 8 143 12 262
11 101 -1 114 -3 156 -28z m-671 -18 c63 -35 90 -80 90 -147 0 -48 -4 -57 -40
-97 -43 -46 -77 -60 -177 -71 l-63 -7 0 -114 0 -114 28 -6 c45 -10 52 -13 52
-24 0 -7 -53 -10 -162 -8 -102 2 -162 7 -161 13 1 6 16 13 34 17 17 3 35 12
40 20 5 7 9 126 9 265 0 239 -1 253 -19 263 -11 5 -29 10 -40 10 -12 0 -21 6
-21 16 0 14 23 15 193 12 183 -3 194 -4 237 -28z"/>
<path d="M7057 16097 c-9 -35 -58 -370 -55 -373 7 -6 289 73 288 81 -1 11
-207 302 -220 310 -4 3 -10 -5 -13 -18z"/>
<path d="M8802 13680 c0 -14 2 -19 5 -12 2 6 2 18 0 25 -3 6 -5 1 -5 -13z"/>
<path d="M7525 12296 c-137 -5 -289 -9 -337 -9 -84 0 -88 -1 -88 -23 0 -12
-11 -89 -24 -170 -14 -82 -34 -219 -46 -304 -11 -85 -34 -236 -50 -335 -16
-99 -45 -295 -65 -435 -20 -140 -51 -349 -70 -465 -19 -115 -48 -313 -65 -440
-17 -126 -42 -297 -56 -379 l-25 -150 31 -24 c44 -35 144 -183 182 -270 31
-72 33 -84 33 -187 -1 -100 -4 -117 -34 -192 -35 -89 -117 -213 -182 -277 -23
-22 -38 -45 -35 -52 7 -18 66 -496 91 -734 12 -115 75 -637 80 -655 2 -11 18
-142 35 -290 16 -149 41 -355 55 -460 14 -104 45 -365 70 -580 24 -214 52
-450 62 -524 l18 -134 200 6 c110 4 372 7 583 7 l382 0 0 30 c0 17 4 30 8 30
5 0 14 19 21 43 14 46 24 70 70 167 73 153 134 242 223 326 82 77 138 104 230
111 98 8 170 -21 253 -101 59 -58 165 -206 165 -232 0 -7 3 -14 8 -16 8 -4 62
-112 62 -126 0 -6 14 -41 30 -78 17 -37 34 -87 37 -111 l6 -43 616 0 616 0 38
313 c21 171 56 463 77 647 22 184 46 385 54 445 9 61 27 211 41 335 14 124 39
329 55 455 17 127 39 309 50 405 10 96 22 191 24 210 3 19 12 100 21 180 8 80
22 202 31 273 l17 127 -50 53 c-78 83 -151 202 -181 297 -22 66 -31 171 -21
224 21 112 107 270 204 372 26 28 43 55 40 64 -11 39 -68 420 -64 435 1 6 0
17 -4 25 -3 8 -15 85 -27 170 -12 85 -28 191 -36 235 -7 44 -32 206 -54 360
-22 154 -47 321 -56 370 -8 50 -19 122 -24 160 -12 99 -97 663 -115 765 -8 47
-15 100 -15 118 0 32 0 32 -52 33 -315 3 -693 11 -699 14 -13 9 -26 -20 -34
-70 -7 -55 -58 -220 -81 -263 -8 -15 -14 -32 -14 -38 0 -20 -98 -151 -140
-186 -64 -56 -169 -59 -231 -8 -39 32 -43 36 -64 62 -65 80 -145 327 -145 446
0 45 -16 65 -40 52 -9 -5 -154 -8 -323 -7 -339 2 -313 7 -323 -60 -6 -43 -36
-148 -55 -189 -10 -23 -21 -54 -25 -68 -3 -14 -10 -29 -15 -32 -5 -3 -9 -12
-9 -21 0 -22 -96 -149 -136 -180 -76 -57 -182 -51 -247 15 -57 58 -60 62 -100
147 -54 113 -93 272 -83 340 4 32 1 43 -12 50 -11 6 -109 7 -267 1z m-73 -60
l295 7 10 -34 c6 -19 11 -50 12 -69 1 -19 6 -39 11 -44 6 -6 10 -21 10 -35 0
-29 48 -169 65 -191 6 -8 19 -31 28 -51 24 -53 92 -125 140 -148 77 -37 170
-24 239 35 37 30 108 118 108 132 0 5 7 15 15 22 8 7 15 21 15 30 0 10 5 20
11 22 5 2 11 10 13 18 1 8 10 32 19 54 9 21 17 47 17 57 0 10 5 21 10 24 6 3
10 17 10 30 0 13 5 27 10 30 6 3 10 16 10 29 0 13 5 37 11 55 l11 31 297 -2
c255 -3 296 -5 296 -18 0 -8 3 -20 7 -25 4 -6 9 -30 11 -52 3 -23 8 -46 11
-52 4 -5 11 -35 17 -65 12 -66 64 -183 111 -248 19 -26 56 -65 83 -85 46 -36
51 -38 124 -38 76 1 97 8 154 55 25 20 107 126 107 138 0 5 6 15 13 21 8 6 20
29 27 51 10 29 16 37 23 28 6 -9 7 -8 3 4 -5 17 5 57 29 113 7 17 21 63 31
102 l18 73 351 2 c192 2 352 2 355 0 2 -1 7 -26 11 -55 3 -29 14 -92 23 -142
9 -49 41 -261 72 -470 30 -209 57 -391 59 -405 29 -187 43 -280 81 -540 25
-168 57 -381 71 -475 14 -93 37 -253 52 -354 l27 -184 -41 -51 c-114 -141
-173 -248 -196 -356 -18 -86 -6 -205 31 -292 51 -121 55 -128 62 -128 5 0 8
-5 8 -11 0 -11 98 -136 123 -158 22 -17 21 -49 -2 -240 -27 -217 -59 -485 -66
-551 -3 -30 -8 -62 -10 -70 -2 -8 -7 -41 -10 -73 -2 -31 -7 -67 -10 -80 -3
-12 -12 -87 -20 -167 -8 -80 -19 -181 -25 -225 -5 -44 -28 -231 -50 -415 -48
-392 -97 -798 -110 -925 -6 -49 -12 -97 -14 -105 -3 -8 -8 -51 -11 -95 -4 -43
-9 -83 -11 -87 -3 -4 -5 -35 -5 -68 0 -33 -11 -102 -23 -153 l-22 -92 -579 -2
-580 -3 -22 53 c-12 28 -25 63 -28 77 -15 54 -125 280 -137 280 -4 0 -8 6 -8
13 0 25 -137 196 -157 197 -7 0 -13 4 -13 9 0 11 -81 58 -131 75 -51 18 -176
3 -238 -29 -43 -22 -170 -126 -180 -148 -1 -4 -11 -16 -21 -25 -54 -53 -212
-354 -239 -458 l-11 -41 -548 -5 c-380 -4 -549 -2 -554 5 -4 6 -14 45 -23 86
-9 42 -21 86 -26 98 -4 13 -6 29 -3 37 3 8 1 54 -5 102 -6 49 -22 188 -35 309
-14 121 -28 234 -31 250 -3 17 -10 73 -15 125 -14 131 -26 235 -45 375 -9 66
-23 176 -30 245 -8 69 -23 204 -35 300 -30 253 -28 242 -65 530 -8 69 -29 240
-45 380 -17 140 -36 305 -43 366 l-13 111 44 49 c88 96 177 258 201 365 36
155 -13 311 -164 518 -43 60 -73 111 -71 120 3 9 19 113 37 231 17 118 39 269
49 335 39 263 111 752 115 782 2 18 9 58 14 90 10 57 65 429 75 508 3 22 12
83 21 135 9 52 22 142 30 200 8 58 19 121 25 140 5 19 10 47 10 62 0 15 5 50
11 78 8 40 14 49 24 40 9 -7 104 -8 307 -4z"/>
<path d="M7812 11588 c-6 -6 -8 -17 -5 -24 3 -9 -2 -14 -16 -14 -29 0 -38 -27
-15 -46 17 -13 16 -14 -21 -8 -22 4 -45 10 -51 15 -6 5 -15 4 -22 -3 -8 -8
-15 -8 -25 1 -11 9 -25 3 -64 -26 -49 -36 -51 -39 -57 -96 -3 -32 -8 -63 -12
-68 -3 -5 -6 -39 -8 -76 -1 -37 -6 -68 -12 -70 -5 -2 -8 -27 -7 -57 1 -50 0
-55 -22 -60 -14 -4 -22 -12 -19 -19 2 -7 -7 -23 -21 -35 -14 -12 -33 -40 -42
-62 -10 -22 -21 -40 -25 -40 -4 0 -14 -12 -22 -27 -8 -16 -36 -56 -63 -90 -26
-34 -74 -103 -106 -152 -33 -50 -63 -91 -68 -91 -5 0 -9 -6 -9 -14 0 -8 -6
-17 -12 -19 -8 -3 -6 -6 4 -6 10 -1 37 -10 60 -20 24 -11 77 -32 118 -46 119
-42 301 -113 405 -158 133 -58 557 -280 690 -362 55 -34 138 -81 185 -105 47
-23 103 -53 125 -66 22 -12 117 -43 210 -68 223 -60 248 -68 263 -79 6 -5 45
-9 85 -8 39 1 187 -3 327 -9 343 -15 400 -7 700 92 70 23 236 84 338 124 35
14 71 24 80 22 21 -4 -221 -100 -433 -171 -272 -92 -352 -100 -802 -83 -128 5
-233 7 -234 5 0 -2 -3 -116 -5 -253 -3 -162 -9 -254 -16 -263 -8 -10 -8 -12 3
-8 12 4 14 -228 11 -1574 l-3 -1578 26 4 c14 3 25 11 25 17 0 7 11 23 25 36
28 26 43 71 47 138 2 51 21 71 49 54 24 -15 29 -15 29 2 0 8 -8 17 -17 20 -12
5 -14 9 -5 18 7 7 12 21 12 31 0 18 5 19 50 14 44 -5 53 -3 73 18 29 31 92 44
101 20 5 -15 9 -13 29 11 12 16 34 51 49 79 19 37 33 51 51 53 30 4 50 -26 49
-72 -1 -35 11 -46 51 -46 34 0 83 -24 90 -45 7 -17 42 -21 52 -5 3 5 -1 21
-10 34 -9 14 -14 30 -10 36 3 5 -1 10 -9 10 -21 0 -36 32 -36 77 0 21 -6 56
-14 78 -8 22 -13 51 -12 65 1 22 7 26 53 32 44 7 66 3 142 -22 49 -17 91 -30
95 -30 11 0 84 80 88 98 4 15 -4 24 -37 40 -51 25 -71 13 -59 -34 5 -19 4 -25
-5 -20 -6 4 -11 14 -11 22 0 8 -5 14 -12 14 -6 0 -20 7 -30 17 -10 9 -28 21
-40 27 -16 8 -23 21 -25 46 -4 74 -11 136 -18 161 -6 22 -2 28 30 45 31 16 36
23 32 47 -5 35 23 57 70 57 38 0 40 6 13 35 -17 18 -18 26 -9 59 9 31 8 41 -6
56 -15 16 -15 19 0 34 19 19 23 19 63 5 28 -10 38 -7 94 25 130 76 171 115
183 177 3 12 11 29 20 39 8 9 15 20 15 24 0 5 18 26 41 48 28 28 53 41 82 46
35 6 45 13 59 41 16 33 16 35 -3 60 -18 23 -20 37 -17 114 2 72 0 91 -13 100
-22 16 -41 55 -34 68 4 5 -5 25 -19 44 -14 18 -26 37 -26 40 0 14 -36 50 -50
50 -8 0 -16 10 -18 21 -3 20 -38 44 -85 58 -10 3 -16 10 -13 15 3 5 -10 21
-29 35 -53 41 -60 60 -45 123 10 41 11 56 2 65 -15 15 -16 64 -2 73 6 3 10 16
10 29 0 12 11 45 25 72 31 61 31 81 1 139 -19 36 -24 56 -20 98 6 83 14 119
33 147 10 14 23 46 30 72 10 42 9 51 -8 79 -11 17 -17 38 -14 45 3 8 2 22 -3
32 -4 9 -13 37 -20 62 -11 41 -10 51 13 115 13 39 27 80 30 92 8 36 101 125
123 118 20 -6 98 29 139 62 20 16 24 29 26 91 1 64 0 72 -17 72 -10 0 -18 5
-18 11 0 15 -100 107 -120 110 -3 0 -16 2 -29 3 -14 2 -27 8 -28 13 -3 7 -17
8 -38 3 -19 -4 -38 -3 -43 2 -6 6 -12 6 -16 -1 -4 -5 -13 -8 -20 -5 -7 3 -19
-2 -26 -11 -15 -18 -34 -20 -25 -2 4 6 0 4 -8 -5 -15 -19 -69 -23 -139 -12
l-37 7 3 69 c2 54 8 74 25 92 26 28 35 83 16 94 -8 4 -16 16 -18 27 -1 11 -5
25 -8 30 -4 6 -10 24 -14 40 -4 17 -10 24 -12 18 -3 -7 -11 -13 -19 -13 -9 0
-13 4 -9 9 6 11 -23 29 -53 34 -11 2 -27 9 -35 15 -10 9 -17 10 -22 2 -10 -16
-39 -12 -54 9 -11 15 -18 17 -31 9 -10 -7 -23 -7 -32 -2 -19 11 -118 126 -118
138 0 14 -87 106 -135 142 -25 19 -44 38 -42 43 4 14 -101 121 -119 121 -18 0
-76 32 -109 60 -11 10 -32 20 -47 24 -16 3 -28 11 -28 16 0 5 -7 7 -15 4 -23
-9 -102 65 -110 103 -4 24 -12 33 -33 38 -32 7 -127 99 -118 114 4 5 3 12 -1
14 -5 3 -30 -15 -58 -39 -27 -25 -54 -43 -61 -40 -6 2 -17 0 -24 -4 -8 -5 -21
-5 -30 0 -10 5 -31 1 -58 -11 -23 -11 -48 -16 -55 -12 -7 4 -19 6 -29 5 -9 -2
-51 6 -93 17 -84 21 -107 18 -186 -27 -20 -11 -45 -22 -55 -23 -20 -4 -84 21
-84 33 0 3 -20 16 -44 28 -25 11 -61 41 -81 66 -20 24 -41 44 -47 44 -5 0 -38
25 -73 55 -47 42 -70 55 -94 55 -19 0 -31 5 -31 13 0 7 -18 33 -40 57 -56 61
-53 68 20 49 9 -3 16 4 18 19 2 12 9 22 17 22 21 0 75 34 75 46 0 17 -27 25
-56 18 -13 -3 -30 -1 -38 5 -23 20 -103 40 -114 29z m43 -73 c0 -10 -6 -20
-12 -22 -8 -3 -13 5 -13 22 0 17 5 25 13 23 6 -3 12 -13 12 -23z m1884 -1216
c12 -14 26 -19 38 -15 30 9 77 -38 69 -69 -3 -13 -1 -27 5 -31 6 -4 9 -19 5
-36 -3 -16 -1 -38 4 -48 6 -11 6 -21 1 -24 -5 -4 -11 0 -14 6 -2 7 -8 9 -13 5
-5 -4 -2 -12 6 -17 10 -6 16 -29 17 -70 1 -49 -2 -65 -18 -81 -10 -10 -19 -26
-19 -34 0 -8 -5 -15 -11 -15 -6 0 -24 -11 -41 -25 -16 -14 -37 -25 -47 -25 -9
0 -22 -5 -28 -11 -15 -15 -87 -21 -117 -10 -25 10 -44 70 -29 94 4 6 6 22 4
35 -1 13 4 34 13 47 9 13 13 31 10 39 -3 8 3 19 14 25 18 9 38 63 32 86 -7 32
-7 61 1 71 5 7 9 16 8 20 -3 19 14 54 27 54 7 0 21 11 31 25 22 30 27 30 52 4z"/>
<path d="M9690 10260 c0 -5 5 -10 10 -10 6 0 10 5 10 10 0 6 -4 10 -10 10 -5
0 -10 -4 -10 -10z"/>
<path d="M8930 11395 c0 -8 5 -15 10 -15 6 0 10 7 10 15 0 8 -4 15 -10 15 -5
0 -10 -7 -10 -15z"/>
<path d="M8850 11357 c0 -21 12 -28 27 -16 19 16 16 29 -7 29 -11 0 -20 -6
-20 -13z"/>
<path d="M8800 11316 c0 -7 6 -19 14 -25 11 -9 18 -8 31 5 13 14 14 19 3 25
-20 13 -48 10 -48 -5z"/>
<path d="M9102 11228 c-7 -7 -12 -16 -12 -20 0 -13 37 -9 49 5 20 24 -14 38
-37 15z"/>
<path d="M7165 10660 c-3 -5 -1 -10 4 -10 6 0 11 5 11 10 0 6 -2 10 -4 10 -3
0 -8 -4 -11 -10z"/>
<path d="M7694 9405 c-9 -14 -21 -22 -27 -18 -6 4 -7 1 -2 -7 5 -8 2 -17 -6
-24 -8 -6 -32 -33 -54 -61 -21 -27 -42 -52 -45 -55 -25 -23 -77 -138 -96 -210
-35 -133 -1 -440 69 -632 7 -21 16 -41 20 -44 22 -22 2 -32 -75 -39 -118 -9
-181 -30 -237 -81 -52 -46 -108 -145 -118 -208 l-6 -39 31 6 c24 5 32 3 32 -7
0 -8 7 -17 16 -20 14 -5 15 -4 4 9 -14 17 -13 17 50 17 24 1 46 -4 48 -11 5
-14 32 -15 32 -1 0 6 -5 10 -12 10 -6 0 -9 3 -6 6 3 3 26 0 49 -7 24 -7 52
-12 62 -11 9 0 17 -4 17 -9 0 -6 5 -7 10 -4 6 4 17 1 25 -5 8 -6 33 -10 56 -9
31 3 43 0 45 -11 13 -63 41 -146 70 -202 20 -40 31 -74 27 -84 -5 -13 -3 -15
7 -9 10 6 12 3 8 -13 -4 -12 -2 -20 3 -16 5 3 9 -4 9 -15 0 -11 5 -23 11 -27
6 -4 25 -36 41 -73 16 -36 38 -83 49 -104 12 -21 18 -45 15 -53 -3 -9 -1 -12
4 -9 15 9 12 -1 -20 -70 -36 -78 -37 -104 -6 -134 13 -12 39 -44 57 -71 20
-29 44 -52 59 -55 13 -4 28 -12 32 -18 6 -9 10 -9 16 0 5 9 16 4 37 -16 17
-15 43 -31 59 -35 33 -8 153 4 137 14 -8 4 -6 12 6 22 18 15 28 17 91 19 24 1
32 5 30 17 -2 12 3 16 17 15 11 -1 14 0 8 3 -18 8 -16 24 3 24 10 0 14 6 11
14 -6 16 16 40 27 29 4 -4 4 1 0 11 -5 13 -4 17 3 13 6 -4 18 -5 26 -1 17 6
14 52 -8 108 -9 21 -13 46 -11 55 3 9 1 23 -5 31 -8 11 -9 9 -3 -10 3 -14 3
-22 -1 -17 -11 10 -13 77 -2 70 5 -3 6 4 3 15 -6 16 -3 19 12 15 15 -4 21 3
27 29 4 18 9 43 9 55 1 12 12 33 24 46 15 16 20 30 16 42 -6 14 -4 17 9 12 11
-4 21 1 28 16 11 20 11 21 -4 8 -15 -12 -17 -11 -17 3 0 9 5 16 11 16 6 0 9 9
6 20 -3 11 -1 18 4 14 5 -3 9 4 9 15 0 12 4 21 10 21 11 0 40 52 40 72 0 9 -3
9 -10 -2 -8 -13 -10 -12 -10 3 0 9 7 17 16 17 9 0 12 5 8 12 -5 8 -2 9 10 5
14 -5 15 -3 6 13 -7 14 -7 22 3 31 7 7 11 26 9 46 -3 19 0 33 6 33 6 0 14 9
17 20 5 16 12 19 32 14 18 -5 24 -3 19 5 -5 7 2 11 18 11 13 0 33 3 43 6 15 5
15 4 3 -5 -13 -9 -13 -11 2 -11 9 0 20 5 23 10 3 6 16 10 28 10 13 0 33 7 46
16 18 13 25 14 31 4 4 -7 13 -9 20 -5 16 10 89 15 115 8 l20 -6 -20 -9 -20 -8
20 4 c41 8 50 11 58 21 4 6 11 4 17 -5 8 -13 10 -12 10 3 0 9 -4 17 -9 17 -5
0 -15 17 -21 38 -17 52 -64 133 -100 170 -46 49 -121 82 -208 92 -54 6 -80 13
-89 26 -9 12 -13 14 -13 4 0 -7 -2 -11 -5 -8 -9 8 26 98 36 92 12 -7 11 3 -2
28 -7 13 -7 18 -1 14 15 -9 21 4 27 65 3 29 10 58 15 63 6 6 10 38 10 72 0 35
5 66 10 69 6 3 7 17 4 31 -3 13 -2 24 3 24 5 0 10 24 11 53 1 31 -2 47 -7 39
-5 -8 -10 20 -14 71 -8 118 -47 201 -167 354 -52 67 -102 122 -110 122 -12 1
-15 -20 -17 -122 -1 -67 -7 -144 -13 -172 -7 -27 -12 -63 -11 -78 0 -15 -4
-25 -8 -22 -5 2 -12 -17 -16 -43 -6 -39 -40 -165 -86 -316 -4 -16 -15 -39 -24
-52 -8 -13 -15 -27 -15 -32 0 -21 -32 -85 -38 -76 -16 21 -62 31 -148 30 -60
-1 -96 -6 -107 -14 -21 -18 -39 -6 -32 21 4 14 3 18 -3 9 -6 -9 -12 -7 -21 11
-7 13 -11 27 -10 33 4 15 -12 64 -21 64 -4 0 -10 12 -13 28 -7 34 -12 53 -21
74 -4 9 -9 22 -10 30 -3 16 -14 44 -28 78 -6 14 -10 38 -9 54 2 19 -1 26 -9
21 -7 -5 -9 2 -4 21 5 19 4 25 -5 20 -7 -5 -11 1 -11 14 0 12 5 18 10 15 16
-10 11 15 -9 49 -15 23 -21 56 -25 131 -11 220 -23 260 -62 200z m83 -357 c-3
-8 -6 -5 -6 6 -1 11 2 17 5 13 3 -3 4 -12 1 -19z m766 -1333 c-3 -9 -8 -14
-10 -11 -3 3 -2 9 2 15 9 16 15 13 8 -4z m-128 -285 c3 -5 1 -10 -4 -10 -6 0
-11 5 -11 10 0 6 2 10 4 10 3 0 8 -4 11 -10z"/>
<path d="M9181 9334 c0 -11 3 -14 6 -6 3 7 2 16 -1 19 -3 4 -6 -2 -5 -13z"/>
<path d="M7782 9120 c0 -14 2 -19 5 -12 2 6 2 18 0 25 -3 6 -5 1 -5 -13z"/>
<path d="M8722 8570 c0 -14 2 -19 5 -12 2 6 2 18 0 25 -3 6 -5 1 -5 -13z"/>
<path d="M8672 8360 c0 -14 2 -19 5 -12 2 6 2 18 0 25 -3 6 -5 1 -5 -13z"/>
<path d="M8698 7943 c7 -3 16 -2 19 1 4 3 -2 6 -13 5 -11 0 -14 -3 -6 -6z"/>
<path d="M8145 6920 c-3 -6 1 -7 9 -4 18 7 21 14 7 14 -6 0 -13 -4 -16 -10z"/>
<path d="M9957 6513 c-11 -10 -8 -41 4 -49 16 -9 43 21 36 40 -7 16 -28 21
-40 9z"/>
<path d="M9823 6255 c-3 -9 2 -22 13 -30 17 -12 17 -14 3 -20 -19 -7 -14 -45
6 -45 17 0 37 -48 30 -71 -4 -13 -2 -19 8 -19 23 0 40 27 33 53 -7 30 3 41 22
24 13 -11 14 -9 1 11 -8 12 -17 22 -20 22 -4 0 -14 17 -22 39 -20 49 -61 69
-74 36z"/>
<path d="M9405 6051 c-10 -17 12 -21 25 -6 10 12 10 15 -3 15 -9 0 -18 -4 -22
-9z"/>
<path d="M9390 5935 c-10 -11 -9 -18 3 -30 20 -19 27 -19 42 2 11 14 10 20 -4
30 -21 16 -26 16 -41 -2z"/>
<path d="M10075 5892 c-7 -20 13 -52 33 -52 21 1 52 23 52 38 0 23 -76 36 -85
14z"/>
<path d="M3875 7471 c-4 -7 -2 -24 3 -39 11 -27 25 -113 37 -222 8 -72 40
-201 67 -269 45 -114 141 -195 244 -207 27 -3 61 -7 75 -9 22 -3 29 2 47 38
53 107 66 167 66 287 -1 129 -18 190 -77 273 -76 107 -165 148 -338 155 -83 3
-118 1 -124 -7z"/>
<path d="M13582 7449 c-69 -13 -162 -70 -208 -126 -70 -85 -88 -146 -88 -293
0 -132 9 -171 60 -276 l25 -50 77 8 c182 19 280 150 326 433 29 179 45 270 52
293 6 22 6 22 -97 21 -57 -1 -124 -5 -147 -10z"/>
<path d="M4762 7156 c-6 -13 -61 -76 -124 -141 -174 -181 -228 -268 -228 -369
0 -62 -11 -72 -30 -26 -7 17 -15 29 -17 26 -2 -2 12 -45 31 -96 20 -51 36 -94
36 -97 0 -2 -22 20 -50 50 -70 77 -127 100 -250 101 -111 1 -151 -8 -364 -80
-87 -30 -169 -54 -182 -54 -33 0 -31 -17 18 -117 132 -272 361 -341 632 -189
61 34 174 139 205 190 8 14 18 26 21 26 3 0 20 -30 39 -67 196 -404 437 -731
795 -1080 97 -95 174 -173 171 -173 -3 0 -33 14 -67 31 -57 29 -68 31 -143 27
-63 -3 -95 -11 -145 -35 -75 -34 -177 -110 -270 -199 -90 -85 -133 -122 -164
-137 l-26 -14 53 -51 c121 -118 213 -162 338 -162 145 0 272 81 381 243 29 43
73 160 83 220 3 20 8 37 11 37 2 0 62 -46 132 -102 70 -57 158 -125 195 -153
36 -27 67 -53 67 -56 0 -4 -35 -6 -77 -6 -64 1 -88 -3 -133 -24 -102 -48 -194
-149 -320 -352 -30 -49 -70 -106 -89 -128 -19 -23 -30 -44 -25 -49 14 -13 146
-77 189 -91 22 -7 83 -13 135 -14 88 0 100 3 162 33 148 73 248 252 262 472 3
43 9 74 15 73 5 -2 79 -49 163 -105 85 -57 182 -120 215 -141 95 -60 96 -65
11 -64 -58 1 -83 -4 -122 -22 -110 -54 -195 -179 -291 -426 -25 -66 -56 -130
-68 -143 -22 -23 -22 -24 -2 -35 11 -7 49 -23 85 -36 54 -20 85 -24 185 -25
140 -1 186 14 258 86 107 107 158 297 128 472 -7 38 -10 71 -7 73 3 3 46 -19
95 -48 50 -30 111 -65 135 -79 24 -14 61 -35 82 -47 22 -12 54 -30 73 -40 18
-11 33 -23 33 -28 -1 -5 -25 -15 -54 -22 -100 -26 -159 -73 -206 -168 -30 -61
-43 -137 -48 -285 -2 -74 -6 -179 -8 -234 l-4 -99 94 7 c150 11 256 50 327
122 122 123 135 357 31 551 -19 34 -34 67 -34 72 0 5 60 -22 133 -60 264 -139
476 -243 482 -237 3 3 8 21 11 40 l6 34 -89 43 c-96 47 -103 50 -338 172 -88
45 -178 91 -200 102 -148 74 -445 245 -445 256 0 4 32 17 72 30 159 51 286
151 341 268 27 58 29 71 25 141 -6 96 -32 156 -106 240 -48 55 -139 132 -156
132 -3 0 -6 -6 -6 -13 0 -8 -34 -54 -75 -103 -159 -188 -185 -222 -215 -286
-56 -119 -50 -219 17 -311 19 -26 33 -50 30 -53 -7 -7 -85 39 -296 176 -159
102 -280 188 -450 321 -52 41 -106 83 -120 93 -31 24 -112 96 -107 96 57 0
222 26 264 42 143 53 242 145 272 252 29 105 -17 262 -116 394 l-37 50 -28
-27 c-15 -15 -85 -67 -157 -114 -144 -97 -238 -188 -272 -262 -30 -65 -30
-151 -2 -224 12 -30 20 -57 17 -59 -9 -10 -355 325 -355 345 0 4 35 9 78 10
302 9 498 193 452 426 -14 72 -64 183 -109 245 l-32 44 -22 -24 c-12 -13 -51
-41 -87 -62 -212 -127 -309 -204 -355 -282 -33 -57 -47 -128 -34 -183 18 -81
-1 -68 -117 80 -44 55 -96 121 -116 147 -21 26 -38 53 -38 62 1 12 3 11 11 -2
13 -24 73 -23 164 1 146 38 272 127 329 231 56 103 41 248 -37 362 -37 54
-134 158 -147 158 -5 0 -11 -9 -15 -19 -5 -17 -69 -79 -189 -182 -64 -55 -153
-174 -175 -234 -25 -66 -27 -141 -6 -192 20 -48 19 -62 -4 -38 -41 45 -281
445 -266 445 3 0 19 -9 34 -21 28 -21 30 -21 101 -5 138 32 259 105 332 201
115 151 83 327 -89 500 -41 41 -78 75 -82 75 -4 0 -13 -11 -19 -24z"/>
<path d="M12854 7108 c-68 -63 -145 -177 -164 -242 -20 -71 -9 -174 25 -231
70 -121 197 -209 360 -250 77 -19 88 -19 110 5 29 32 29 16 -1 -42 -33 -66
-206 -343 -239 -383 l-25 -30 21 60 c38 110 12 217 -78 324 -49 58 -64 73
-207 205 -47 44 -86 85 -86 93 0 24 -18 14 -71 -39 -106 -107 -159 -217 -159
-328 0 -71 13 -111 58 -176 61 -88 177 -161 310 -195 91 -23 135 -24 156 -3
24 23 19 3 -6 -33 -68 -93 -238 -303 -246 -303 -4 0 -7 39 -7 87 0 67 -5 98
-20 128 -40 82 -161 181 -365 299 -36 21 -77 49 -91 63 l-27 24 -36 -57 c-20
-32 -50 -92 -68 -134 -29 -67 -33 -85 -32 -166 0 -81 3 -95 29 -140 40 -70 95
-118 178 -158 85 -40 146 -55 244 -59 40 -1 75 -6 79 -9 6 -7 -253 -268 -318
-320 -44 -34 -46 -28 -17 39 30 69 28 146 -6 222 -36 80 -121 159 -293 275
-73 49 -138 98 -144 109 -11 21 -11 20 -34 -6 -37 -43 -104 -163 -125 -224
-21 -62 -25 -147 -8 -208 39 -143 228 -262 437 -273 50 -2 92 -8 92 -12 0 -10
-52 -55 -200 -172 -116 -91 -216 -163 -440 -318 -105 -73 -321 -202 -327 -196
-4 3 3 19 15 34 52 65 67 104 67 182 0 113 -46 198 -206 381 -50 57 -101 119
-112 137 -19 32 -20 33 -46 16 -50 -33 -146 -133 -178 -186 -42 -69 -65 -159
-57 -218 22 -153 174 -300 372 -360 39 -12 72 -26 72 -30 0 -10 -29 -27 -220
-133 -201 -111 -309 -167 -593 -310 l-259 -129 7 -37 c4 -20 9 -38 11 -40 4
-4 288 138 521 261 45 23 84 40 87 38 2 -3 -11 -37 -30 -75 -117 -239 -87
-471 75 -582 77 -53 162 -80 284 -89 l95 -7 -4 64 c-2 35 -6 138 -8 229 -5
188 -22 279 -67 358 -36 63 -92 106 -168 128 -31 9 -63 19 -71 21 -18 5 13 31
75 63 22 12 67 37 100 57 33 19 74 43 90 53 17 9 54 31 83 49 63 37 77 39 67
9 -3 -13 -9 -68 -12 -123 -12 -230 87 -418 251 -475 98 -35 253 -22 377 31 27
12 49 23 49 26 0 2 -9 13 -19 24 -16 18 -81 163 -81 182 0 23 -110 231 -147
279 -76 97 -188 149 -284 134 -31 -5 -37 -3 -33 8 3 8 12 17 21 20 8 4 108 68
222 144 113 75 209 139 214 140 4 2 7 -28 7 -66 0 -135 72 -316 163 -410 23
-24 71 -57 107 -75 59 -29 73 -32 160 -32 66 0 110 6 145 18 61 23 185 87 185
97 0 4 -9 15 -21 26 -12 10 -37 44 -57 74 -185 287 -248 362 -353 416 -47 24
-66 28 -141 28 -49 0 -88 1 -88 2 0 2 42 34 93 73 50 38 139 108 197 155 58
47 108 86 113 86 4 0 7 -14 7 -31 0 -41 50 -165 96 -237 88 -137 219 -224 349
-230 125 -7 232 39 350 150 l67 62 -31 16 c-17 8 -70 51 -118 95 -138 127
-223 192 -301 232 -62 31 -86 37 -155 41 -74 4 -88 1 -142 -24 -33 -15 -64
-30 -70 -32 -5 -3 74 78 176 179 365 362 565 630 767 1032 29 59 57 107 61
107 4 0 14 -13 24 -29 23 -39 110 -125 163 -162 118 -81 266 -121 366 -100 76
17 164 68 214 125 41 46 134 215 134 243 0 6 -19 13 -42 17 -24 4 -95 25 -158
48 -194 68 -254 81 -370 82 -130 0 -173 -17 -248 -99 -29 -31 -52 -52 -52 -46
0 6 16 49 35 95 33 80 50 149 19 79 -22 -52 -34 -49 -34 7 0 58 -40 157 -92
223 -17 23 -85 97 -150 164 -65 68 -118 129 -118 138 0 25 -16 17 -76 -37z"/>
<path d="M4335 6023 c-52 -11 -214 -66 -318 -107 -63 -25 -127 -46 -141 -46
-32 0 -32 -7 -4 -68 57 -123 143 -220 238 -268 47 -24 67 -28 145 -28 76 -1
103 4 169 28 117 43 257 160 305 254 l19 38 -30 49 c-68 109 -155 156 -286
154 -42 -1 -86 -3 -97 -6z"/>
<path d="M13149 5996 c-81 -29 -142 -83 -183 -163 -15 -31 -15 -35 0 -64 9
-18 50 -66 93 -108 218 -219 484 -238 658 -47 50 55 109 155 127 214 6 19 4
22 -19 22 -14 0 -92 26 -174 59 -81 32 -185 68 -231 80 -95 24 -216 27 -271 7z"/>
<path d="M4715 5541 c-83 -24 -148 -59 -310 -167 -77 -51 -152 -97 -168 -103
-15 -6 -27 -15 -27 -20 0 -14 81 -112 128 -156 52 -49 161 -102 226 -110 68
-9 154 9 230 47 117 59 267 242 290 354 6 28 2 36 -49 82 -95 87 -194 110
-320 73z"/>
<path d="M12780 5523 c-59 -21 -158 -98 -166 -129 -4 -17 6 -49 34 -109 32
-66 58 -102 119 -163 188 -190 399 -210 581 -55 51 44 142 149 142 165 0 4 -9
10 -21 13 -12 4 -87 51 -168 105 -169 113 -244 152 -328 174 -75 20 -134 19
-193 -1z"/>
<path d="M6423 5416 c-12 -14 -79 -62 -150 -109 -219 -144 -303 -246 -303
-369 0 -62 28 -150 61 -192 19 -24 26 -26 99 -26 102 0 167 14 260 57 77 35
145 91 182 152 63 101 50 249 -35 395 -34 59 -77 116 -86 116 -4 0 -17 -11
-28 -24z"/>
<path d="M11218 5396 c-83 -114 -131 -235 -132 -331 -1 -135 73 -237 219 -306
97 -45 161 -59 265 -59 l80 0 25 38 c58 87 68 202 26 297 -30 67 -125 154
-282 258 -81 53 -149 104 -153 112 -8 22 -28 18 -48 -9z"/>
<path d="M7454 4769 c-16 -17 -76 -67 -134 -112 -124 -95 -208 -181 -246 -251
-23 -41 -27 -63 -28 -125 -1 -68 2 -82 33 -140 46 -84 65 -95 144 -87 312 35
510 246 442 472 -23 79 -148 274 -175 274 -3 0 -19 -14 -36 -31z"/>
<path d="M10170 4743 c-42 -47 -95 -130 -122 -191 -17 -36 -22 -68 -22 -137
-1 -87 1 -94 34 -149 58 -96 159 -167 298 -207 73 -22 195 -27 216 -10 7 6 27
40 46 77 47 94 48 164 3 254 -40 82 -100 143 -263 271 -71 56 -131 108 -134
115 -8 22 -22 17 -56 -23z"/>
<path d="M8517 4219 c-59 -14 -84 -36 -119 -107 -30 -61 -33 -75 -33 -162 0
-86 3 -101 30 -155 51 -101 119 -127 209 -81 l49 25 -7 -70 c-9 -104 -47 -169
-97 -169 -29 0 -59 32 -74 78 -5 18 -12 22 -28 18 -12 -3 -33 -6 -46 -6 -22 0
-23 -3 -19 -44 15 -126 104 -191 222 -161 124 32 186 202 173 475 -6 144 -20
204 -60 271 -47 78 -113 107 -200 88z m82 -138 c26 -26 51 -112 51 -177 0 -45
-4 -54 -26 -69 -27 -17 -73 -23 -93 -11 -24 15 -51 86 -51 135 0 113 64 177
119 122z"/>
<path d="M8533 4078 c-20 -26 -26 -41 -15 -34 12 7 36 46 29 46 -3 0 -9 -6
-14 -12z"/>
<path d="M7902 4153 l3 -58 45 -5 45 -5 0 -285 0 -285 -42 -3 -43 -3 0 -59 0
-59 141 -3 c78 -2 145 0 151 3 5 3 8 30 6 60 l-3 54 -37 3 -38 3 0 350 0 349
-115 0 -116 0 3 -57z"/>
<path d="M8916 4073 c-3 -76 -8 -170 -11 -208 l-4 -70 43 -28 c24 -15 46 -27
49 -27 3 0 19 14 35 30 39 39 56 38 99 -5 l35 -35 -4 -89 c-3 -78 -6 -93 -27
-115 -49 -52 -118 -24 -139 54 -5 21 -14 34 -23 33 -8 -1 -31 -4 -53 -8 l-38
-6 6 -42 c11 -65 54 -136 99 -158 74 -38 194 -22 244 32 48 53 68 117 68 225
0 92 -2 105 -30 159 -39 76 -80 105 -149 105 -33 0 -62 -7 -83 -20 -18 -10
-34 -16 -35 -12 -2 4 -1 50 2 102 l5 95 88 3 87 3 0 -31 c0 -29 2 -30 45 -30
l45 0 0 90 0 90 -174 0 -174 0 -6 -137z"/>
<path d="M9460 4150 l0 -60 45 0 45 0 0 -289 0 -290 -42 -3 -43 -3 -3 -57 -3
-58 156 0 156 0 -3 58 -3 57 -42 3 -43 3 0 350 0 349 -110 0 -110 0 0 -60z"/>
<path d="M8794 3780 c0 -69 1 -97 3 -62 2 34 2 90 0 125 -2 34 -3 6 -3 -63z"/>
<path d="M9050 3770 c-8 -5 -12 -11 -10 -14 3 -2 14 2 24 10 22 15 10 19 -14
4z"/>
<path d="M9016 3733 c-6 -14 -5 -15 5 -6 7 7 10 15 7 18 -3 3 -9 -2 -12 -12z"/>
<path d="M8533 3673 c9 -2 25 -2 35 0 9 3 1 5 -18 5 -19 0 -27 -2 -17 -5z"/>
<path d="M8782 3630 c0 -14 2 -19 5 -12 2 6 2 18 0 25 -3 6 -5 1 -5 -13z"/>
<path d="M9312 3625 c0 -16 2 -22 5 -12 2 9 2 23 0 30 -3 6 -5 -1 -5 -18z"/>
<path d="M9300 3539 c-7 -24 -14 -48 -17 -54 -4 -7 -2 -7 5 0 11 11 34 87 27
93 -2 2 -9 -16 -15 -39z"/>
<path d="M9781 3454 c0 -11 3 -14 6 -6 3 7 2 16 -1 19 -3 4 -6 -2 -5 -13z"/>
<path d="M8709 3428 c-7 -11 -27 -29 -44 -39 -16 -11 -24 -19 -17 -19 15 0 89
66 81 74 -3 3 -12 -4 -20 -16z"/>
<path d="M9243 3426 c-11 -13 -35 -34 -54 -45 -19 -12 -30 -21 -25 -21 17 0
74 41 90 65 21 32 13 32 -11 1z"/>
<path d="M2525 13472 c-49 -23 -120 -101 -136 -149 -17 -52 -7 -150 21 -208
50 -105 231 -254 425 -350 204 -101 350 -100 433 1 128 154 18 356 -327 604
-117 83 -190 113 -291 117 -68 3 -93 0 -125 -15z"/>
<path d="M1592 11743 c-18 -9 -44 -30 -57 -48 -26 -34 -70 -125 -80 -166 -7
-29 -12 -27 135 -77 47 -17 136 -49 199 -72 92 -35 115 -40 122 -29 13 22 49
163 49 195 -1 45 -34 107 -76 142 -76 63 -221 90 -292 55z"/>
<path d="M1235 9960 c-158 -29 -241 -122 -239 -270 1 -108 54 -182 168 -234
217 -100 639 -102 781 -5 69 48 105 139 90 228 -14 84 -125 174 -276 225 -140
47 -413 76 -524 56z"/>
<path d="M16252 8577 c3 -55 11 -104 21 -122 38 -74 120 -115 229 -115 164 0
238 81 238 262 l0 68 -246 0 -247 0 5 -93z"/>
<path d="M1470 8063 c-209 -34 -348 -110 -399 -218 -16 -35 -21 -64 -21 -132
0 -110 5 -118 56 -104 21 5 165 28 319 51 396 59 566 89 594 107 21 13 23 20
18 63 -20 167 -149 241 -417 238 -69 0 -136 -3 -150 -5z"/>
<path d="M5799 2093 c-58 -100 -61 -107 -43 -120 47 -34 118 -4 154 68 33 63
21 122 -30 149 -16 9 -26 -3 -81 -97z"/>
<path d="M9407 1493 c3 -65 9 -122 13 -127 13 -13 77 13 94 39 19 28 21 98 5
145 -12 33 -56 60 -98 60 -19 0 -20 -5 -14 -117z"/>
<path d="M8750 1464 l0 -126 32 6 c47 9 76 42 84 93 13 87 -28 153 -96 153
-19 0 -20 -6 -20 -126z"/>
</g>
</svg>
